<svg width="18" height="18" viewBox="0 0 18 18" fill="none" xmlns="http://www.w3.org/2000/svg">
<path d="M9.23047 17.5117L10.0039 16.7383C10.1869 16.5552 10.1869 16.2584 10.0039 16.0754L3.9441 10.0156H17.2813C17.5401 10.0156 17.75 9.80575 17.75 9.54688V8.45313C17.75 8.19427 17.5401 7.98438 17.2813 7.98438H3.9441L10.0039 1.92462C10.1869 1.74157 10.1869 1.44477 10.0039 1.26169L9.23047 0.488329C9.04742 0.305282 8.75062 0.305282 8.56754 0.488329L0.3873 8.66856C0.204254 8.85161 0.204254 9.14841 0.3873 9.33149L8.56754 17.5117C8.75059 17.6948 9.04738 17.6948 9.23047 17.5117Z" fill="white"/>
</svg>
